<svg xmlns="http://www.w3.org/2000/svg" viewBox="0 0 321.16 119.46"><defs><style>.cls-1{fill:#4790cd;}.cls-2{fill:#4690cd;}.cls-3{fill:none;stroke:#1d1d1b;stroke-miterlimit:10;stroke-width:0.25px;}.cls-4{font-size:62.87px;fill:#78797c;font-family:Lato-Light, Lato;}.cls-5{letter-spacing:-0.03em;}</style></defs><title>Zasób 2</title><g id="Warstwa_2" data-name="Warstwa 2"><g id="Warstwa_1-2" data-name="Warstwa 1"><path class="cls-1" d="M242,.12c-7.28,0-20.15,20.5-26.39,43.91Q190.66,28,165,41.62h-.07C174.32,16.09,205.47-1.61,242,.12Z"/><path class="cls-1" d="M242,.12h0"/><path class="cls-1" d="M242,.12h0"/><path class="cls-2" d="M319,41.62H319Q293.31,28,268.39,44C262.15,20.62,249.27.13,242,.13,278.49-1.61,309.64,16.09,319,41.62Z"/><path class="cls-2" d="M242,.12h0"/><path class="cls-2" d="M242,.12h0"/><path class="cls-2" d="M267.26,45.25q-25.27-14.79-50.56,0a123.94,123.94,0,0,1,12.05-31.38C233.45,5.62,238.36.28,242,.12,249.24.43,261.6,21.53,267.26,45.25Z"/><path class="cls-3" d="M242,.12h0"/><text class="cls-4" transform="translate(0 102.89)">UMBRELL<tspan class="cls-5" x="280.77" y="0">A</tspan></text></g></g></svg>